<svg viewBox="0 0 1400 1000" xmlns="http://www.w3.org/2000/svg">
  <!-- Background -->
  <rect width="1400" height="1000" fill="#f8f9fa"/>
  
  <!-- Title -->
  <text x="700" y="30" text-anchor="middle" font-size="24" font-weight="bold" fill="#2c3e50">Mentorship Platform ER Diagram</text>
  
  <!-- User Entity (Central) -->
  <g id="user">
    <rect x="600" y="60" width="200" height="120" fill="#3498db" stroke="#2c3e50" stroke-width="2"/>
    <text x="700" y="80" text-anchor="middle" font-size="16" font-weight="bold" fill="white">User</text>
    <text x="610" y="100" font-size="12" fill="white">• user_id (PK)</text>
    <text x="610" y="115" font-size="12" fill="white">• username</text>
    <text x="610" y="130" font-size="12" fill="white">• email</text>
    <text x="610" y="145" font-size="12" fill="white">• password_hash</text>
    <text x="610" y="160" font-size="12" fill="white">• created_at</text>
  </g>
  
  <!-- StudentProfile Entity -->
  <g id="student">
    <rect x="350" y="250" width="200" height="140" fill="#e74c3c" stroke="#2c3e50" stroke-width="2"/>
    <text x="450" y="270" text-anchor="middle" font-size="16" font-weight="bold" fill="white">StudentProfile</text>
    <text x="360" y="290" font-size="12" fill="white">• student_id (PK)</text>
    <text x="360" y="305" font-size="12" fill="white">• user_id (FK)</text>
    <text x="360" y="320" font-size="12" fill="white">• first_name</text>
    <text x="360" y="335" font-size="12" fill="white">• last_name</text>
    <text x="360" y="350" font-size="12" fill="white">• bio</text>
    <text x="360" y="365" font-size="12" fill="white">• educational_level</text>
    <text x="360" y="380" font-size="12" fill="white">• interests</text>
  </g>
  
  <!-- MentorProfile Entity -->
  <g id="mentor">
    <rect x="850" y="250" width="200" height="155" fill="#27ae60" stroke="#2c3e50" stroke-width="2"/>
    <text x="950" y="270" text-anchor="middle" font-size="16" font-weight="bold" fill="white">MentorProfile</text>
    <text x="860" y="290" font-size="12" fill="white">• mentor_id (PK)</text>
    <text x="860" y="305" font-size="12" fill="white">• user_id (FK)</text>
    <text x="860" y="320" font-size="12" fill="white">• first_name</text>
    <text x="860" y="335" font-size="12" fill="white">• last_name</text>
    <text x="860" y="350" font-size="12" fill="white">• hiring_price</text>
    <text x="860" y="365" font-size="12" fill="white">• total_earned</text>
    <text x="860" y="380" font-size="12" fill="white">• rating</text>
    <text x="860" y="395" font-size="12" fill="white">• is_verified</text>
  </g>
  
  <!-- Course Entity -->
  <g id="course">
    <rect x="1100" y="450" width="200" height="120" fill="#f39c12" stroke="#2c3e50" stroke-width="2"/>
    <text x="1200" y="470" text-anchor="middle" font-size="16" font-weight="bold" fill="white">Course</text>
    <text x="1110" y="490" font-size="12" fill="white">• course_id (PK)</text>
    <text x="1110" y="505" font-size="12" fill="white">• mentor_id (FK)</text>
    <text x="1110" y="520" font-size="12" fill="white">• title</text>
    <text x="1110" y="535" font-size="12" fill="white">• description</text>
    <text x="1110" y="550" font-size="12" fill="white">• price</text>
    <text x="1110" y="565" font-size="12" fill="white">• duration</text>
  </g>
  
  <!-- Mentorship Entity -->
  <g id="mentorship">
    <rect x="600" y="460" width="200" height="120" fill="#9b59b6" stroke="#2c3e50" stroke-width="2"/>
    <text x="700" y="480" text-anchor="middle" font-size="16" font-weight="bold" fill="white">Mentorship</text>
    <text x="610" y="500" font-size="12" fill="white">• mentorship_id (PK)</text>
    <text x="610" y="515" font-size="12" fill="white">• mentor_id (FK)</text>
    <text x="610" y="530" font-size="12" fill="white">• student_id (FK)</text>
    <text x="610" y="545" font-size="12" fill="white">• start_date</text>
    <text x="610" y="560" font-size="12" fill="white">• status</text>
    <text x="610" y="575" font-size="12" fill="white">• agreed_price</text>
  </g>
  
  <!-- CourseEnrollment Entity -->
  <g id="enrollment">
    <rect x="350" y="600" width="200" height="100" fill="#34495e" stroke="#2c3e50" stroke-width="2"/>
    <text x="450" y="620" text-anchor="middle" font-size="14" font-weight="bold" fill="white">CourseEnrollment</text>
    <text x="360" y="640" font-size="12" fill="white">• enrollment_id (PK)</text>
    <text x="360" y="655" font-size="12" fill="white">• course_id (FK)</text>
    <text x="360" y="670" font-size="12" fill="white">• student_id (FK)</text>
    <text x="360" y="685" font-size="12" fill="white">• enrollment_date</text>
  </g>
  
  <!-- Session Entity -->
  <g id="session">
    <rect x="850" y="620" width="200" height="100" fill="#1abc9c" stroke="#2c3e50" stroke-width="2"/>
    <text x="950" y="640" text-anchor="middle" font-size="16" font-weight="bold" fill="white">Session</text>
    <text x="860" y="660" font-size="12" fill="white">• session_id (PK)</text>
    <text x="860" y="675" font-size="12" fill="white">• mentorship_id (FK)</text>
    <text x="860" y="690" font-size="12" fill="white">• session_date</text>
    <text x="860" y="705" font-size="12" fill="white">• duration</text>
  </g>
  
  <!-- Education Entity -->
  <g id="education">
    <rect x="1100" y="60" width="180" height="100" fill="#95a5a6" stroke="#2c3e50" stroke-width="2"/>
    <text x="1190" y="80" text-anchor="middle" font-size="14" font-weight="bold" fill="white">Education</text>
    <text x="1110" y="100" font-size="12" fill="white">• education_id (PK)</text>
    <text x="1110" y="115" font-size="12" fill="white">• mentor_id (FK)</text>
    <text x="1110" y="130" font-size="12" fill="white">• degree</text>
    <text x="1110" y="145" font-size="12" fill="white">• institution</text>
  </g>
  
  <!-- Expertise Entity -->
  <g id="expertise">
    <rect x="1100" y="200" width="180" height="100" fill="#e67e22" stroke="#2c3e50" stroke-width="2"/>
    <text x="1190" y="220" text-anchor="middle" font-size="14" font-weight="bold" fill="white">Expertise</text>
    <text x="1110" y="240" font-size="12" fill="white">• expertise_id (PK)</text>
    <text x="1110" y="255" font-size="12" fill="white">• mentor_id (FK)</text>
    <text x="1110" y="270" font-size="12" fill="white">• expert_at</text>
    <text x="1110" y="285" font-size="12" fill="white">• teaching_method</text>
  </g>
  
  <!-- Skill Entity -->
  <g id="skill">
    <rect x="1100" y="330" width="180" height="80" fill="#8e44ad" stroke="#2c3e50" stroke-width="2"/>
    <text x="1190" y="350" text-anchor="middle" font-size="14" font-weight="bold" fill="white">Skill</text>
    <text x="1110" y="370" font-size="12" fill="white">• skill_id (PK)</text>
    <text x="1110" y="385" font-size="12" fill="white">• expertise_id (FK)</text>
    <text x="1110" y="400" font-size="12" fill="white">• name</text>
  </g>
  
  <!-- JobExperience Entity -->
  <g id="job">
    <rect x="50" y="250" width="180" height="120" fill="#16a085" stroke="#2c3e50" stroke-width="2"/>
    <text x="140" y="270" text-anchor="middle" font-size="14" font-weight="bold" fill="white">JobExperience</text>
    <text x="60" y="290" font-size="12" fill="white">• job_id (PK)</text>
    <text x="60" y="305" font-size="12" fill="white">• mentor_id (FK)</text>
    <text x="60" y="320" font-size="12" fill="white">• position</text>
    <text x="60" y="335" font-size="12" fill="white">• company</text>
    <text x="60" y="350" font-size="12" fill="white">• start_date</text>
    <text x="60" y="365" font-size="12" fill="white">• end_date</text>
  </g>
  
  <!-- Availability Entity -->
  <g id="availability">
    <rect x="50" y="400" width="180" height="100" fill="#2ecc71" stroke="#2c3e50" stroke-width="2"/>
    <text x="140" y="420" text-anchor="middle" font-size="14" font-weight="bold" fill="white">Availability</text>
    <text x="60" y="440" font-size="12" fill="white">• availability_id (PK)</text>
    <text x="60" y="455" font-size="12" fill="white">• mentor_id (FK)</text>
    <text x="60" y="470" font-size="12" fill="white">• day_of_week</text>
    <text x="60" y="485" font-size="12" fill="white">• from_time</text>
  </g>
  
  <!-- Payment Entity -->
  <g id="payment">
    <rect x="50" y="750" width="180" height="120" fill="#c0392b" stroke="#2c3e50" stroke-width="2"/>
    <text x="140" y="770" text-anchor="middle" font-size="14" font-weight="bold" fill="white">Payment</text>
    <text x="60" y="790" font-size="12" fill="white">• payment_id (PK)</text>
    <text x="60" y="805" font-size="12" fill="white">• payer_id (FK)</text>
    <text x="60" y="820" font-size="12" fill="white">• payee_id (FK)</text>
    <text x="60" y="835" font-size="12" fill="white">• amount</text>
    <text x="60" y="850" font-size="12" fill="white">• payment_type</text>
    <text x="60" y="865" font-size="12" fill="white">• status</text>
  </g>
  
  <!-- Review Entity -->
  <g id="review">
    <rect x="350" y="750" width="180" height="120" fill="#d35400" stroke="#2c3e50" stroke-width="2"/>
    <text x="440" y="770" text-anchor="middle" font-size="14" font-weight="bold" fill="white">Review</text>
    <text x="360" y="790" font-size="12" fill="white">• review_id (PK)</text>
    <text x="360" y="805" font-size="12" fill="white">• reviewer_id (FK)</text>
    <text x="360" y="820" font-size="12" fill="white">• reviewee_id (FK)</text>
    <text x="360" y="835" font-size="12" fill="white">• rating</text>
    <text x="360" y="850" font-size="12" fill="white">• comment</text>
    <text x="360" y="865" font-size="12" fill="white">• review_type</text>
  </g>
  
  <!-- Message Entity -->
  <g id="message">
    <rect x="600" y="750" width="180" height="120" fill="#7f8c8d" stroke="#2c3e50" stroke-width="2"/>
    <text x="690" y="770" text-anchor="middle" font-size="14" font-weight="bold" fill="white">Message</text>
    <text x="610" y="790" font-size="12" fill="white">• message_id (PK)</text>
    <text x="610" y="805" font-size="12" fill="white">• sender_id (FK)</text>
    <text x="610" y="820" font-size="12" fill="white">• receiver_id (FK)</text>
    <text x="610" y="835" font-size="12" fill="white">• content</text>
    <text x="610" y="850" font-size="12" fill="white">• sent_at</text>
    <text x="610" y="865" font-size="12" fill="white">• is_read</text>
  </g>
  
  <!-- Relationships (Lines and Diamonds) -->
  
  <!-- User to StudentProfile (1:1) -->
  <line x1="650" y1="180" x2="500" y2="250" stroke="#2c3e50" stroke-width="2"/>
  <text x="575" y="215" font-size="12" fill="#2c3e50">1:1</text>
  
  <!-- User to MentorProfile (1:1) -->
  <line x1="750" y1="180" x2="900" y2="250" stroke="#2c3e50" stroke-width="2"/>
  <text x="825" y="215" font-size="12" fill="#2c3e50">1:1</text>
  
  <!-- MentorProfile to Course (1:M) -->
  <line x1="1050" y1="327" x2="1100" y2="510" stroke="#2c3e50" stroke-width="2"/>
  <text x="1075" y="418" font-size="12" fill="#2c3e50">1:M</text>
  
  <!-- MentorProfile to Education (1:M) -->
  <line x1="1050" y1="250" x2="1100" y2="110" stroke="#2c3e50" stroke-width="2"/>
  <text x="1075" y="180" font-size="12" fill="#2c3e50">1:M</text>
  
  <!-- MentorProfile to Expertise (1:1) -->
  <line x1="1050" y1="280" x2="1100" y2="250" stroke="#2c3e50" stroke-width="2"/>
  <text x="1075" y="265" font-size="12" fill="#2c3e50">1:1</text>
  
  <!-- Expertise to Skill (1:M) -->
  <line x1="1190" y1="300" x2="1190" y2="330" stroke="#2c3e50" stroke-width="2"/>
  <text x="1200" y="315" font-size="12" fill="#2c3e50">1:M</text>
  
  <!-- MentorProfile to JobExperience (1:M) -->
  <line x1="850" y1="310" x2="230" y2="310" stroke="#2c3e50" stroke-width="2"/>
  <text x="540" y="300" font-size="12" fill="#2c3e50">1:M</text>
  
  <!-- MentorProfile to Availability (1:M) -->
  <line x1="850" y1="350" x2="230" y2="450" stroke="#2c3e50" stroke-width="2"/>
  <text x="540" y="400" font-size="12" fill="#2c3e50">1:M</text>
  
  <!-- StudentProfile to CourseEnrollment (1:M) -->
  <line x1="450" y1="390" x2="450" y2="600" stroke="#2c3e50" stroke-width="2"/>
  <text x="460" y="495" font-size="12" fill="#2c3e50">1:M</text>
  
  <!-- Course to CourseEnrollment (1:M) -->
  <line x1="1100" y1="570" x2="550" y2="650" stroke="#2c3e50" stroke-width="2"/>
  <text x="825" y="610" font-size="12" fill="#2c3e50">1:M</text>
  
  <!-- Mentorship to Session (1:M) -->
  <line x1="800" y1="520" x2="850" y2="670" stroke="#2c3e50" stroke-width="2"/>
  <text x="825" y="595" font-size="12" fill="#2c3e50">1:M</text>
  
  <!-- StudentProfile to Mentorship (1:M) -->
  <line x1="550" y1="320" x2="600" y2="520" stroke="#2c3e50" stroke-width="2"/>
  <text x="575" y="420" font-size="12" fill="#2c3e50">1:M</text>
  
  <!-- MentorProfile to Mentorship (1:M) -->
  <line x1="850" y1="405" x2="800" y2="460" stroke="#2c3e50" stroke-width="2"/>
  <text x="825" y="432" font-size="12" fill="#2c3e50">1:M</text>
  
  <!-- User to Payment (1:M) -->
  <line x1="600" y1="180" x2="140" y2="750" stroke="#2c3e50" stroke-width="2"/>
  <text x="370" y="465" font-size="12" fill="#2c3e50">1:M</text>
  
  <!-- User to Review (1:M) -->
  <line x1="650" y1="180" x2="440" y2="750" stroke="#2c3e50" stroke-width="2"/>
  <text x="545" y="465" font-size="12" fill="#2c3e50">1:M</text>
  
  <!-- User to Message (1:M) -->
  <line x1="700" y1="180" x2="690" y2="750" stroke="#2c3e50" stroke-width="2"/>
  <text x="695" y="465" font-size="12" fill="#2c3e50">1:M</text>
  
  <!-- Legend -->
  <g id="legend">
    <rect x="850" y="900" width="500" height="80" fill="#ecf0f1" stroke="#2c3e50" stroke-width="1"/>
    <text x="1100" y="920" text-anchor="middle" font-size="16" font-weight="bold" fill="#2c3e50">Legend</text>
    <text x="860" y="940" font-size="12" fill="#2c3e50">• PK = Primary Key</text>
    <text x="860" y="955" font-size="12" fill="#2c3e50">• FK = Foreign Key</text>
    <text x="860" y="970" font-size="12" fill="#2c3e50">• 1:1 = One-to-One Relationship</text>
    <text x="1100" y="940" font-size="12" fill="#2c3e50">• 1:M = One-to-Many Relationship</text>
    <text x="1100" y="955" font-size="12" fill="#2c3e50">• M:M = Many-to-Many (through junction table)</text>
    <text x="1100" y="970" font-size="12" fill="#2c3e50">• Lines show entity relationships</text>
  </g>
</svg>